<svg xmlns="http://www.w3.org/2000/svg" width="116" height="20" viewBox="0 0 116 20" fill="none">
<path d="M9.4022 2.87774C9.59427 2.48863 9.69031 2.29407 9.82068 2.23191C9.93411 2.17782 10.0659 2.17782 10.1793 2.23191C10.3097 2.29407 10.4057 2.48863 10.5978 2.87774L12.42 6.56938C12.4767 6.68426 12.5051 6.7417 12.5465 6.78629C12.5832 6.82578 12.6272 6.85777 12.6761 6.8805C12.7313 6.90617 12.7947 6.91543 12.9214 6.93396L16.9975 7.52973C17.4267 7.59247 17.6413 7.62384 17.7406 7.72868C17.8271 7.81989 17.8677 7.94523 17.8512 8.06979C17.8323 8.21296 17.677 8.3643 17.3662 8.66696L14.4179 11.5387C14.326 11.6282 14.28 11.6729 14.2503 11.7262C14.2241 11.7734 14.2072 11.8252 14.2008 11.8787C14.1934 11.9392 14.2043 12.0025 14.2259 12.1289L14.9216 16.1851C14.995 16.6129 15.0317 16.8268 14.9627 16.9537C14.9028 17.0642 14.7961 17.1416 14.6725 17.1645C14.5305 17.1909 14.3384 17.0899 13.9543 16.8878L10.3103 14.9715C10.1968 14.9118 10.14 14.8819 10.0802 14.8702C10.0272 14.8598 9.97277 14.8598 9.91982 14.8702C9.86001 14.8819 9.80324 14.9118 9.6897 14.9715L6.04576 16.8878C5.66159 17.0899 5.4695 17.1909 5.32747 17.1645C5.20389 17.1416 5.09726 17.0642 5.03727 16.9537C4.96832 16.8268 5.00501 16.6129 5.07839 16.1851L5.77406 12.1289C5.79575 12.0025 5.80659 11.9392 5.79926 11.8787C5.79276 11.8252 5.77592 11.7734 5.74966 11.7262C5.72001 11.6729 5.67405 11.6282 5.58214 11.5387L2.63379 8.66696C2.32304 8.3643 2.16767 8.21296 2.14876 8.06979C2.13231 7.94523 2.17295 7.81989 2.25937 7.72868C2.35869 7.62384 2.5733 7.59247 3.00253 7.52973L7.07858 6.93396C7.20534 6.91543 7.26872 6.90617 7.32392 6.8805C7.37279 6.85777 7.41679 6.82578 7.45348 6.78629C7.49491 6.7417 7.52326 6.68426 7.57997 6.56938L9.4022 2.87774Z" fill="#FFF500"/>
<path d="M33.4022 2.87774C33.5943 2.48863 33.6903 2.29407 33.8207 2.23191C33.9341 2.17782 34.0659 2.17782 34.1793 2.23191C34.3097 2.29407 34.4057 2.48863 34.5978 2.87774L36.42 6.56938C36.4767 6.68426 36.5051 6.7417 36.5465 6.78629C36.5832 6.82578 36.6272 6.85777 36.6761 6.8805C36.7313 6.90617 36.7947 6.91543 36.9214 6.93396L40.9975 7.52973C41.4267 7.59247 41.6413 7.62384 41.7406 7.72868C41.8271 7.81989 41.8677 7.94523 41.8512 8.06979C41.8323 8.21296 41.677 8.3643 41.3662 8.66696L38.4179 11.5387C38.326 11.6282 38.28 11.6729 38.2503 11.7262C38.2241 11.7734 38.2072 11.8252 38.2008 11.8787C38.1934 11.9392 38.2043 12.0025 38.2259 12.1289L38.9216 16.1851C38.995 16.6129 39.0317 16.8268 38.9627 16.9537C38.9028 17.0642 38.7961 17.1416 38.6725 17.1645C38.5305 17.1909 38.3384 17.0899 37.9543 16.8878L34.3103 14.9715C34.1968 14.9118 34.14 14.8819 34.0802 14.8702C34.0272 14.8598 33.9728 14.8598 33.9198 14.8702C33.86 14.8819 33.8032 14.9118 33.6897 14.9715L30.0458 16.8878C29.6616 17.0899 29.4695 17.1909 29.3275 17.1645C29.2039 17.1416 29.0973 17.0642 29.0373 16.9537C28.9683 16.8268 29.005 16.6129 29.0784 16.1851L29.7741 12.1289C29.7957 12.0025 29.8066 11.9392 29.7993 11.8787C29.7928 11.8252 29.7759 11.7734 29.7497 11.7262C29.72 11.6729 29.6741 11.6282 29.5821 11.5387L26.6338 8.66696C26.323 8.3643 26.1677 8.21296 26.1488 8.06979C26.1323 7.94523 26.173 7.81989 26.2594 7.72868C26.3587 7.62384 26.5733 7.59247 27.0025 7.52973L31.0786 6.93396C31.2053 6.91543 31.2687 6.90617 31.3239 6.8805C31.3728 6.85777 31.4168 6.82578 31.4535 6.78629C31.4949 6.7417 31.5233 6.68426 31.58 6.56938L33.4022 2.87774Z" fill="#FFF500"/>
<path d="M57.4022 2.87774C57.5943 2.48863 57.6903 2.29407 57.8207 2.23191C57.9341 2.17782 58.0659 2.17782 58.1793 2.23191C58.3097 2.29407 58.4057 2.48863 58.5978 2.87774L60.42 6.56938C60.4767 6.68426 60.5051 6.7417 60.5465 6.78629C60.5832 6.82578 60.6272 6.85777 60.6761 6.8805C60.7313 6.90617 60.7947 6.91543 60.9214 6.93396L64.9975 7.52973C65.4267 7.59247 65.6413 7.62384 65.7406 7.72868C65.8271 7.81989 65.8677 7.94523 65.8512 8.06979C65.8323 8.21296 65.677 8.3643 65.3662 8.66696L62.4179 11.5387C62.326 11.6282 62.28 11.6729 62.2503 11.7262C62.2241 11.7734 62.2072 11.8252 62.2008 11.8787C62.1934 11.9392 62.2043 12.0025 62.2259 12.1289L62.9216 16.1851C62.995 16.6129 63.0317 16.8268 62.9627 16.9537C62.9028 17.0642 62.7961 17.1416 62.6725 17.1645C62.5305 17.1909 62.3384 17.0899 61.9543 16.8878L58.3103 14.9715C58.1968 14.9118 58.14 14.8819 58.0802 14.8702C58.0272 14.8598 57.9728 14.8598 57.9198 14.8702C57.86 14.8819 57.8032 14.9118 57.6897 14.9715L54.0458 16.8878C53.6616 17.0899 53.4695 17.1909 53.3275 17.1645C53.2039 17.1416 53.0973 17.0642 53.0373 16.9537C52.9683 16.8268 53.005 16.6129 53.0784 16.1851L53.7741 12.1289C53.7957 12.0025 53.8066 11.9392 53.7993 11.8787C53.7928 11.8252 53.7759 11.7734 53.7497 11.7262C53.72 11.6729 53.6741 11.6282 53.5821 11.5387L50.6338 8.66696C50.323 8.3643 50.1677 8.21296 50.1488 8.06979C50.1323 7.94523 50.173 7.81989 50.2594 7.72868C50.3587 7.62384 50.5733 7.59247 51.0025 7.52973L55.0786 6.93396C55.2053 6.91543 55.2687 6.90617 55.3239 6.8805C55.3728 6.85777 55.4168 6.82578 55.4535 6.78629C55.4949 6.7417 55.5233 6.68426 55.58 6.56938L57.4022 2.87774Z" fill="#FFF500"/>
<path d="M81.4022 2.87774C81.5943 2.48863 81.6903 2.29407 81.8207 2.23191C81.9341 2.17782 82.0659 2.17782 82.1793 2.23191C82.3097 2.29407 82.4057 2.48863 82.5978 2.87774L84.42 6.56938C84.4767 6.68426 84.5051 6.7417 84.5465 6.78629C84.5832 6.82578 84.6272 6.85777 84.6761 6.8805C84.7313 6.90617 84.7947 6.91543 84.9214 6.93396L88.9975 7.52973C89.4267 7.59247 89.6413 7.62384 89.7406 7.72868C89.8271 7.81989 89.8677 7.94523 89.8512 8.06979C89.8323 8.21296 89.677 8.3643 89.3662 8.66696L86.4179 11.5387C86.326 11.6282 86.28 11.6729 86.2503 11.7262C86.2241 11.7734 86.2072 11.8252 86.2008 11.8787C86.1934 11.9392 86.2043 12.0025 86.2259 12.1289L86.9216 16.1851C86.995 16.6129 87.0317 16.8268 86.9627 16.9537C86.9028 17.0642 86.7961 17.1416 86.6725 17.1645C86.5305 17.1909 86.3384 17.0899 85.9543 16.8878L82.3103 14.9715C82.1968 14.9118 82.14 14.8819 82.0802 14.8702C82.0272 14.8598 81.9728 14.8598 81.9198 14.8702C81.86 14.8819 81.8032 14.9118 81.6897 14.9715L78.0458 16.8878C77.6616 17.0899 77.4695 17.1909 77.3275 17.1645C77.2039 17.1416 77.0973 17.0642 77.0373 16.9537C76.9683 16.8268 77.005 16.6129 77.0784 16.1851L77.7741 12.1289C77.7957 12.0025 77.8066 11.9392 77.7993 11.8787C77.7928 11.8252 77.7759 11.7734 77.7497 11.7262C77.72 11.6729 77.6741 11.6282 77.5821 11.5387L74.6338 8.66696C74.323 8.3643 74.1677 8.21296 74.1488 8.06979C74.1323 7.94523 74.173 7.81989 74.2594 7.72868C74.3587 7.62384 74.5733 7.59247 75.0025 7.52973L79.0786 6.93396C79.2053 6.91543 79.2687 6.90617 79.3239 6.8805C79.3728 6.85777 79.4168 6.82578 79.4535 6.78629C79.4949 6.7417 79.5233 6.68426 79.58 6.56938L81.4022 2.87774Z" fill="#FFF500"/>
<path d="M105.402 2.87774C105.594 2.48863 105.69 2.29407 105.821 2.23191C105.934 2.17782 106.066 2.17782 106.179 2.23191C106.31 2.29407 106.406 2.48863 106.598 2.87774L108.42 6.56938C108.477 6.68426 108.505 6.7417 108.547 6.78629C108.583 6.82578 108.627 6.85777 108.676 6.8805C108.731 6.90617 108.795 6.91543 108.921 6.93396L112.997 7.52973C113.427 7.59247 113.641 7.62384 113.741 7.72868C113.827 7.81989 113.868 7.94523 113.851 8.06979C113.832 8.21296 113.677 8.3643 113.366 8.66696L110.418 11.5387C110.326 11.6282 110.28 11.6729 110.25 11.7262C110.224 11.7734 110.207 11.8252 110.201 11.8787C110.193 11.9392 110.204 12.0025 110.226 12.1289L110.922 16.1851C110.995 16.6129 111.032 16.8268 110.963 16.9537C110.903 17.0642 110.796 17.1416 110.673 17.1645C110.531 17.1909 110.338 17.0899 109.954 16.8878L106.31 14.9715C106.197 14.9118 106.14 14.8819 106.08 14.8702C106.027 14.8598 105.973 14.8598 105.92 14.8702C105.86 14.8819 105.803 14.9118 105.69 14.9715L102.046 16.8878C101.662 17.0899 101.469 17.1909 101.327 17.1645C101.204 17.1416 101.097 17.0642 101.037 16.9537C100.968 16.8268 101.005 16.6129 101.078 16.1851L101.774 12.1289C101.796 12.0025 101.807 11.9392 101.799 11.8787C101.793 11.8252 101.776 11.7734 101.75 11.7262C101.72 11.6729 101.674 11.6282 101.582 11.5387L98.6338 8.66696C98.323 8.3643 98.1677 8.21296 98.1488 8.06979C98.1323 7.94523 98.173 7.81989 98.2594 7.72868C98.3587 7.62384 98.5733 7.59247 99.0025 7.52973L103.079 6.93396C103.205 6.91543 103.269 6.90617 103.324 6.8805C103.373 6.85777 103.417 6.82578 103.453 6.78629C103.495 6.7417 103.523 6.68426 103.58 6.56938L105.402 2.87774Z" fill="#FFF500"/>
</svg>
